PERFORMER "Steve Lawler"
TITLE "Essential Mix (2009-05-16) [TMB]"
FILE "Essential Mix - 2009-05-16 - Steve Lawler.mp3" MP3
  TRACK 01 AUDIO
    PERFORMER "Essential Mix"
    TITLE "Intro"
    INDEX 01 00:00:00
  TRACK 02 AUDIO
    PERFORMER "SIS"
    TITLE "Masomenos"
    INDEX 01 02:18:06
  TRACK 03 AUDIO
    PERFORMER "Late Night Tuff Guy"
    TITLE "I Get Deep"
    INDEX 01 12:31:05
  TRACK 04 AUDIO
    PERFORMER "Mirco Violi"
    TITLE "Caballo"
    INDEX 01 18:25:31
  TRACK 05 AUDIO
    PERFORMER "2000 and One"
    TITLE "Wan Poku Moro"
    INDEX 01 23:20:53
  TRACK 06 AUDIO
    PERFORMER "Hermanez"
    TITLE "Marrakech (Martinez Remix)"
    INDEX 01 28:55:74
  TRACK 07 AUDIO
    PERFORMER "Radio Slave"
    TITLE "Koma Koma (Steve Lawler Remix)"
    INDEX 01 35:03:45
  TRACK 08 AUDIO
    PERFORMER "Yosa"
    TITLE "Desmond"
    INDEX 01 43:41:60
  TRACK 09 AUDIO
    PERFORMER "Michel Cleis"
    TITLE "La Mezcla"
    INDEX 01 49:32:06
  TRACK 10 AUDIO
    PERFORMER "Saeed Younan"
    TITLE "Kumbalha"
    INDEX 01 57:09:18
  TRACK 11 AUDIO
    PERFORMER "Neuroxyde"
    TITLE "Balkanika"
    INDEX 01 61:05:36
  TRACK 12 AUDIO
    PERFORMER "James Teej"
    TITLE "Spending Life (Affkt & Danny Fido Remix)"
    INDEX 01 62:36:74
  TRACK 13 AUDIO
    PERFORMER "Analogue People In A Digital World"
    TITLE "Rose Rouge"
    INDEX 01 65:55:00
  TRACK 14 AUDIO
    PERFORMER "Spencer Parker"
    TITLE "The Beginning (Michel Cleis Remix)"
    INDEX 01 70:57:74
  TRACK 15 AUDIO
    PERFORMER "Okain"
    TITLE "Black Rock"
    INDEX 01 79:36:74
  TRACK 16 AUDIO
    PERFORMER "Siwel"
    TITLE "Kenya"
    INDEX 01 85:56:74
  TRACK 17 AUDIO
    PERFORMER "Mariano Arcuri"
    TITLE "Montecristo (Mike Kiraly's Remix)"
    INDEX 01 90:02:54
  TRACK 18 AUDIO
    PERFORMER "Rocha & Lewinger"
    TITLE "Cochise"
    INDEX 01 94:46:40
  TRACK 19 AUDIO
    PERFORMER "Pirupa & Pigi"
    TITLE "Shadows"
    INDEX 01 98:19:74
  TRACK 20 AUDIO
    PERFORMER "Jussi Pekka"
    TITLE "Haerkaele (Martin Eyerer & Oliver Klein Mix)"
    INDEX 01 103:01:66
  TRACK 21 AUDIO
    PERFORMER "Defaced"
    TITLE "Outrun"
    INDEX 01 110:26:26
  TRACK 22 AUDIO
    PERFORMER "Strict Border"
    TITLE "The Queen"
    INDEX 01 114:27:39